PathFileType	4	(x/y/z)	S04_PSF_T02.trc
DataRate	CameraRate	NumFrames	NumMarkers	Units	OrigDataRate	OrigDataStartFrame	OrigNumFrames
240	240	7	51	mm	240	377	430
Frame#	Time	Sternum			R.Acromium			L.Acromium			Top.Head			R.ASIS			L.ASIS			R.PSIS			L.PSIS			R.Great.Tro			L.Great.Tro			R.Iliac.Crest			L.Iliac.Crest			V.Sacral			R.Thigh.Upper.Post			R.Thigh.Lower.Ant			R.Thigh.Lower.Post			R.Thigh.Upper.Ant			R.Knee.Lat			R.Knee.Med			R.Shank.Upper.Post			R.Shank.Lower.Ant			R.Shank.Lower.Post			R.Shank.Upper.Ant			R.Ankle.Lat			R.Ankle.Med			R.Heel.Upper			R.Heel.Med			R.Heel.Lat			R.Toe.Lat			R.Toe.Med			R.Toe.Tip			L.Thigh.Upper.Post			L.Thigh.Lower.Ant			L.Thigh.Lower.Post			L.Thigh.Upper.Ant			L.Knee.Lat			L.Knee.Med			L.Shank.Upper.Post			L.Shank.Lower.Ant			L.Shank.Lower.Post			L.Shank.Upper.Ant			L.Ankle.Lat			L.Ankle.Med			L.Heel.Upper			L.Heel.Med			L.Heel.Lat			L.Toe.Lat			L.Toe.Med			L.Toe.Tip			Cervical.Spine			Back			
		X1	Y1	Z1	X2	Y2	Z2	X3	Y3	Z3	X4	Y4	Z4	X5	Y5	Z5	X6	Y6	Z6	X7	Y7	Z7	X8	Y8	Z8	X9	Y9	Z9	X10	Y10	Z10	X11	Y11	Z11	X12	Y12	Z12	X13	Y13	Z13	X14	Y14	Z14	X15	Y15	Z15	X16	Y16	Z16	X17	Y17	Z17	X18	Y18	Z18	X19	Y19	Z19	X20	Y20	Z20	X21	Y21	Z21	X22	Y22	Z22	X23	Y23	Z23	X24	Y24	Z24	X25	Y25	Z25	X26	Y26	Z26	X27	Y27	Z27	X28	Y28	Z28	X29	Y29	Z29	X30	Y30	Z30	X31	Y31	Z31	X32	Y32	Z32	X33	Y33	Z33	X34	Y34	Z34	X35	Y35	Z35	X36	Y36	Z36	X37	Y37	Z37	X38	Y38	Z38	X39	Y39	Z39	X40	Y40	Z40	X41	Y41	Z41	X42	Y42	Z42	X43	Y43	Z43	X44	Y44	Z44	X45	Y45	Z45	X46	Y46	Z46	X47	Y47	Z47	X48	Y48	Z48	X49	Y49	Z49	X50	Y50	Z50	X51	Y51	Z51	

377	1.5667	496.23	1272.2	316.31	370.76	1506	484.24	377.79	1487.5	134.26	425.9	1828.7	296.7	469.35	993.03	445.94	456.96	1005.7	197.52	254.72	1029.9	361.35	258.67	1036.6	280.16	390.76	917.02	517.72	330.81	927.69	142.29	384.08	1089.1	493.54	360.44	1089.6	158.46	234.59	992.11	319.2	478.11	670.11	512.59	577.2	621.55	475.71	511.44	586.45	497.05	544.96	726.12	495.99	557.13	532.89	485.97	541.99	520.28	358.51	530.54	300.8	484.49	617.86	240.59	454.46	548.04	233.27	472.07	596.8	307.93	475.25	589.77	121.04	457.67	618.99	141.61	371.87	543.19	74.52	393.19	564.63	49.64	364.39	552.25	42.421	426.9	710.39	74.513	496.13	758.07	93.66	387.02	806.43	126.84	441.92	281.46	703.5	163.09	345.37	595.31	171.87	275.48	614.32	177.85	345.77	684.29	153.36	295.14	510.84	187.62	301.25	504.22	310.71	180.05	345.77	198.54	236.82	250.54	201	175.07	268.55	208.21	241.69	326.54	190.87	191.04	104.57	229.83	198.78	114.92	320.46	115.82	76.017	274.24	121.6	49.686	306.99	119.03	49.649	245.28	301.89	42.216	204.11	334.52	43.712	320.47	391.37	52.58	270.26	326.97	1552.2	311.32	239.82	1296.9	292.86
378	1.5708	501.49	1271.3	316.69	375.97	1505.1	484.56	383.28	1486.6	134.6	431.28	1827.9	297.04	474.65	992.14	446.07	461.93	1004.9	197.72	259.96	1029.1	361.7	263.84	1035.8	280.52	396.11	916.13	517.96	335.56	927.08	142.51	389.41	1088.2	493.8	365.48	1088.9	158.72	239.79	991.27	319.55	482.75	669	512.81	581.9	620.45	476.1	516.1	585.34	497.27	549.64	725.01	496.37	562.29	532.15	486.23	547.15	519.24	358.79	540.65	299.63	484.74	629.26	241.4	454.66	559.67	232.51	472.28	606.73	308.26	475.48	603.94	121.24	457.84	632.63	142.42	372.02	558.43	73.631	393.44	580.31	49.238	364.59	568.13	41.799	427.11	725.57	77.343	496.22	772.78	97.462	387.1	820.42	131.73	441.93	285.01	703.41	163.26	348.35	594.89	172.18	278.56	614.23	178.07	349.21	683.87	153.67	297.51	510.6	187.75	303.67	503.94	310.83	181.47	346.12	198.76	237.76	250.6	201.11	176.13	268.96	208.36	243.03	326.58	190.98	191.23	104.79	230.01	199.06	115.13	320.62	115.91	76.216	274.46	121.7	49.831	307.16	119.09	49.884	245.46	301.91	42.225	204.15	334.62	43.581	320.51	391.48	52.361	270.27	332.34	1551.4	311.6	245.11	1296.1	293.08
379	1.575	506.76	1270.3	317.09	381.19	1504.2	484.9	388.77	1485.7	134.95	436.67	1827	297.39	479.98	991.25	446.2	466.92	1004.1	197.92	265.21	1028.2	362.06	269.03	1035	280.89	401.49	915.21	518.19	340.33	926.45	142.72	394.72	1087.2	494.08	370.54	1088.1	158.98	245.02	990.4	319.89	487.4	667.86	513.05	586.61	619.31	476.49	520.76	584.21	497.51	554.32	723.87	496.74	567.44	531.38	486.5	552.27	518.16	359.08	550.65	298.52	484.99	640.48	242.26	454.85	571.13	231.83	472.5	616.52	308.62	475.7	617.87	121.55	457.99	645.99	143.32	372.16	573.41	72.878	393.7	595.71	48.972	364.79	583.74	41.326	427.33	740.45	80.267	496.27	787.16	101.32	387.13	834.06	136.67	441.87	288.6	703.31	163.44	351.38	594.46	172.47	281.68	614.11	178.29	352.69	683.42	153.98	299.94	510.36	187.89	306.17	503.65	310.96	182.95	346.48	198.97	238.74	250.67	201.23	177.22	269.38	208.51	244.41	326.62	191.1	191.43	105.03	230.2	199.37	115.36	320.78	116.01	76.437	274.69	121.81	49.999	307.34	119.16	50.14	245.65	301.94	42.23	204.21	334.72	43.451	320.55	391.58	52.135	270.29	337.73	1550.5	311.9	250.42	1295.3	293.31
380	1.5792	512.04	1269.4	317.49	386.42	1503.4	485.26	394.27	1484.8	135.33	442.07	1826.1	297.74	485.34	990.35	446.34	471.92	1003.3	198.12	270.48	1027.3	362.42	274.24	1034.1	281.26	406.9	914.28	518.43	345.14	925.81	142.93	400.01	1086.3	494.36	375.62	1087.3	159.24	250.26	989.49	320.23	492.08	666.71	513.3	591.33	618.15	476.88	525.43	583.07	497.76	559.03	722.71	497.11	572.59	530.58	486.79	557.36	517.05	359.37	560.53	297.49	485.25	651.5	243.15	455.01	582.42	231.24	472.71	626.16	309	475.91	631.53	121.96	458.13	659.06	144.28	372.27	588.09	72.248	393.96	610.8	48.826	364.99	599.06	40.987	427.55	755.01	83.264	496.28	801.17	105.22	387.11	847.34	141.61	441.75	292.24	703.19	163.62	354.46	594.02	172.76	284.87	613.99	178.51	356.22	682.97	154.28	302.44	510.11	188.02	308.74	503.35	311.09	184.48	346.87	199.16	239.76	250.75	201.34	178.37	269.82	208.66	245.84	326.66	191.21	191.64	105.28	230.38	199.68	115.6	320.95	116.12	76.685	274.92	121.92	50.195	307.53	119.23	50.421	245.84	301.96	42.232	204.26	334.83	43.322	320.58	391.69	51.901	270.3	343.12	1549.7	312.21	255.73	1294.5	293.56
381	1.5833	517.34	1268.4	317.91	391.66	1502.4	485.63	399.78	1483.9	135.72	447.46	1825.2	298.09	490.71	989.45	446.47	476.95	1002.5	198.32	275.77	1026.4	362.79	279.47	1033.2	281.64	412.33	913.33	518.67	349.97	925.15	143.12	405.29	1085.3	494.64	380.72	1086.5	159.52	255.53	988.56	320.58	496.79	665.55	513.57	596.07	616.97	477.26	530.12	581.91	498.03	563.78	721.54	497.46	577.73	529.76	487.08	562.43	515.91	359.67	570.28	296.52	485.52	662.32	244.06	455.16	593.52	230.72	472.91	635.66	309.39	476.11	644.92	122.45	458.24	671.81	145.3	372.37	602.45	71.729	394.21	625.54	48.784	365.18	614.06	40.768	427.78	769.22	86.307	496.25	814.8	109.11	387.02	860.26	146.53	441.55	295.92	703.05	163.83	357.59	593.57	173.05	288.1	613.86	178.75	359.8	682.51	154.57	305	509.86	188.16	311.38	503.04	311.23	186.08	347.27	199.35	240.82	250.83	201.45	179.55	270.27	208.81	247.32	326.7	191.33	191.86	105.55	230.57	200.01	115.86	321.12	116.24	76.963	275.15	122.04	50.422	307.72	119.31	50.732	246.04	301.99	42.23	204.32	334.95	43.195	320.61	391.81	51.659	270.32	348.51	1548.8	312.53	261.06	1293.6	293.81
382	1.5875	522.65	1267.4	318.34	396.91	1501.5	486.02	405.29	1483	136.12	452.86	1824.3	298.46	496.11	988.55	446.61	482	1001.7	198.52	281.07	1025.4	363.16	284.71	1032.3	282.01	417.79	912.36	518.9	354.83	924.47	143.31	410.57	1084.3	494.93	385.84	1085.6	159.79	260.81	987.59	320.93	501.55	664.39	513.84	600.84	615.78	477.62	534.86	580.75	498.31	568.57	720.36	497.79	582.9	528.94	487.39	567.5	514.76	359.97	579.89	295.62	485.79	672.91	244.98	455.28	604.41	230.26	473.12	645	309.79	476.29	657.99	123	458.34	684.24	146.35	372.45	616.47	71.305	394.47	639.92	48.828	365.38	628.72	40.652	428.01	783.06	89.368	496.18	828.03	112.98	386.88	872.79	151.39	441.28	299.64	702.89	164.05	360.78	593.11	173.32	291.4	613.71	178.98	363.42	682.03	154.86	307.65	509.59	188.29	314.11	502.71	311.36	187.74	347.68	199.52	241.93	250.91	201.56	180.79	270.73	208.96	248.85	326.75	191.44	192.1	105.84	230.74	200.35	116.14	321.29	116.38	77.277	275.38	122.16	50.686	307.91	119.39	51.075	246.24	302.02	42.224	204.39	335.07	43.071	320.64	391.93	51.409	270.33	353.92	1547.9	312.88	266.4	1292.8	294.07
383	1.5917	527.97	1266.5	318.78	402.17	1500.6	486.42	410.81	1482.1	136.55	458.26	1823.4	298.83	501.53	987.65	446.75	487.08	1000.8	198.72	286.39	1024.5	363.54	289.97	1031.4	282.39	423.29	911.39	519.14	359.72	923.78	143.49	415.84	1083.3	495.23	390.98	1084.8	160.08	266.12	986.6	321.28	506.37	663.24	514.14	605.67	614.6	477.97	539.66	579.59	498.6	573.41	719.19	498.11	588.09	528.11	487.69	572.57	513.6	360.28	589.35	294.78	486.07	683.27	245.89	455.39	615.09	229.87	473.32	654.18	310.18	476.45	670.74	123.6	458.42	696.31	147.41	372.51	630.11	70.961	394.72	653.9	48.938	365.57	642.99	40.621	428.23	796.51	92.417	496.07	840.84	116.78	386.67	884.92	156.15	440.94	303.41	702.71	164.29	364.03	592.64	173.58	294.76	613.54	179.22	367.1	681.54	155.13	310.37	509.32	188.43	316.92	502.37	311.49	189.46	348.11	199.68	243.08	251	201.67	182.07	271.2	209.11	250.45	326.8	191.55	192.35	106.16	230.91	200.7	116.44	321.46	116.52	77.629	275.61	122.29	50.992	308.11	119.48	51.454	246.44	302.06	42.215	204.45	335.2	42.949	320.66	392.06	51.151	270.34	359.32	1547	313.24	271.75	1291.9	294.35
